<mxfile host="app.diagrams.net" modified="2024-03-15T03:48:40.200Z" agent="Mozilla/5.0 (Macintosh; Intel Mac OS X 10_15_7) AppleWebKit/537.36 (KHTML, like Gecko) Chrome/122.0.0.0 Safari/537.36" etag="Ki7RvfPd-LWcRZCvCYKy" version="23.1.8" type="github">
  <diagram name="Page-1" id="2YBvvXClWsGukQMizWep">
    <mxGraphModel dx="1327" dy="683" grid="1" gridSize="10" guides="1" tooltips="1" connect="1" arrows="1" fold="1" page="1" pageScale="1" pageWidth="1100" pageHeight="850" math="0" shadow="0">
      <root>
        <mxCell id="0" />
        <mxCell id="1" parent="0" />
        <mxCell id="v1292jfQCxuiTqx2GI6a-1" value="Member" style="shape=umlActor;verticalLabelPosition=bottom;verticalAlign=top;html=1;outlineConnect=0;" vertex="1" parent="1">
          <mxGeometry x="229" y="42" width="30" height="60" as="geometry" />
        </mxCell>
        <mxCell id="v1292jfQCxuiTqx2GI6a-8" value="" style="endArrow=none;dashed=1;html=1;rounded=0;" edge="1" parent="1" source="v1292jfQCxuiTqx2GI6a-13">
          <mxGeometry width="50" height="50" relative="1" as="geometry">
            <mxPoint x="243" y="522" as="sourcePoint" />
            <mxPoint x="243.63" y="122" as="targetPoint" />
          </mxGeometry>
        </mxCell>
        <mxCell id="v1292jfQCxuiTqx2GI6a-14" value="" style="endArrow=none;dashed=1;html=1;rounded=0;" edge="1" parent="1" target="v1292jfQCxuiTqx2GI6a-13">
          <mxGeometry width="50" height="50" relative="1" as="geometry">
            <mxPoint x="243" y="832" as="sourcePoint" />
            <mxPoint x="243.63" y="122" as="targetPoint" />
          </mxGeometry>
        </mxCell>
        <mxCell id="v1292jfQCxuiTqx2GI6a-13" value="" style="html=1;points=[[0,0,0,0,5],[0,1,0,0,-5],[1,0,0,0,5],[1,1,0,0,-5]];perimeter=orthogonalPerimeter;outlineConnect=0;targetShapes=umlLifeline;portConstraint=eastwest;newEdgeStyle={&quot;curved&quot;:0,&quot;rounded&quot;:0};" vertex="1" parent="1">
          <mxGeometry x="239" y="132" width="10" height="668" as="geometry" />
        </mxCell>
        <mxCell id="v1292jfQCxuiTqx2GI6a-15" value=":Home page" style="shape=umlLifeline;perimeter=lifelinePerimeter;whiteSpace=wrap;html=1;container=1;dropTarget=0;collapsible=0;recursiveResize=0;outlineConnect=0;portConstraint=eastwest;newEdgeStyle={&quot;curved&quot;:0,&quot;rounded&quot;:0};" vertex="1" parent="1">
          <mxGeometry x="329" y="82" width="100" height="480" as="geometry" />
        </mxCell>
        <mxCell id="v1292jfQCxuiTqx2GI6a-21" value="" style="html=1;points=[[0,0,0,0,5],[0,1,0,0,-5],[1,0,0,0,5],[1,1,0,0,-5]];perimeter=orthogonalPerimeter;outlineConnect=0;targetShapes=umlLifeline;portConstraint=eastwest;newEdgeStyle={&quot;curved&quot;:0,&quot;rounded&quot;:0};" vertex="1" parent="v1292jfQCxuiTqx2GI6a-15">
          <mxGeometry x="45" y="50" width="10" height="180" as="geometry" />
        </mxCell>
        <mxCell id="v1292jfQCxuiTqx2GI6a-16" value=":Sign up page" style="shape=umlLifeline;perimeter=lifelinePerimeter;whiteSpace=wrap;html=1;container=1;dropTarget=0;collapsible=0;recursiveResize=0;outlineConnect=0;portConstraint=eastwest;newEdgeStyle={&quot;curved&quot;:0,&quot;rounded&quot;:0};" vertex="1" parent="1">
          <mxGeometry x="489" y="82" width="100" height="400" as="geometry" />
        </mxCell>
        <mxCell id="v1292jfQCxuiTqx2GI6a-28" value="" style="html=1;points=[[0,0,0,0,5],[0,1,0,0,-5],[1,0,0,0,5],[1,1,0,0,-5]];perimeter=orthogonalPerimeter;outlineConnect=0;targetShapes=umlLifeline;portConstraint=eastwest;newEdgeStyle={&quot;curved&quot;:0,&quot;rounded&quot;:0};" vertex="1" parent="v1292jfQCxuiTqx2GI6a-16">
          <mxGeometry x="45" y="140" width="10" height="170" as="geometry" />
        </mxCell>
        <mxCell id="v1292jfQCxuiTqx2GI6a-36" value="Redirect" style="html=1;align=left;spacingLeft=2;endArrow=block;rounded=0;edgeStyle=orthogonalEdgeStyle;curved=0;rounded=0;" edge="1" parent="v1292jfQCxuiTqx2GI6a-16">
          <mxGeometry relative="1" as="geometry">
            <mxPoint x="55" y="250" as="sourcePoint" />
            <Array as="points">
              <mxPoint x="85" y="280" />
            </Array>
            <mxPoint x="55" y="280" as="targetPoint" />
          </mxGeometry>
        </mxCell>
        <mxCell id="v1292jfQCxuiTqx2GI6a-17" value=":Sign in page" style="shape=umlLifeline;perimeter=lifelinePerimeter;whiteSpace=wrap;html=1;container=1;dropTarget=0;collapsible=0;recursiveResize=0;outlineConnect=0;portConstraint=eastwest;newEdgeStyle={&quot;curved&quot;:0,&quot;rounded&quot;:0};" vertex="1" parent="1">
          <mxGeometry x="649" y="82" width="100" height="660" as="geometry" />
        </mxCell>
        <mxCell id="v1292jfQCxuiTqx2GI6a-40" value="" style="html=1;points=[[0,0,0,0,5],[0,1,0,0,-5],[1,0,0,0,5],[1,1,0,0,-5]];perimeter=orthogonalPerimeter;outlineConnect=0;targetShapes=umlLifeline;portConstraint=eastwest;newEdgeStyle={&quot;curved&quot;:0,&quot;rounded&quot;:0};" vertex="1" parent="v1292jfQCxuiTqx2GI6a-17">
          <mxGeometry x="45" y="460" width="10" height="180" as="geometry" />
        </mxCell>
        <mxCell id="v1292jfQCxuiTqx2GI6a-19" value="Visit" style="html=1;verticalAlign=bottom;endArrow=block;curved=0;rounded=0;" edge="1" parent="1" target="v1292jfQCxuiTqx2GI6a-21">
          <mxGeometry width="80" relative="1" as="geometry">
            <mxPoint x="249" y="142" as="sourcePoint" />
            <mxPoint x="369" y="142" as="targetPoint" />
          </mxGeometry>
        </mxCell>
        <mxCell id="v1292jfQCxuiTqx2GI6a-20" value="Click sign up button" style="html=1;verticalAlign=bottom;endArrow=block;curved=0;rounded=0;" edge="1" parent="1" target="v1292jfQCxuiTqx2GI6a-21">
          <mxGeometry x="0.008" width="80" relative="1" as="geometry">
            <mxPoint x="249" y="182" as="sourcePoint" />
            <mxPoint x="369" y="182" as="targetPoint" />
            <mxPoint as="offset" />
          </mxGeometry>
        </mxCell>
        <mxCell id="v1292jfQCxuiTqx2GI6a-22" value="Open signup page" style="html=1;verticalAlign=bottom;endArrow=block;curved=0;rounded=0;" edge="1" parent="1" target="v1292jfQCxuiTqx2GI6a-28">
          <mxGeometry width="80" relative="1" as="geometry">
            <mxPoint x="384" y="221" as="sourcePoint" />
            <mxPoint x="529" y="222" as="targetPoint" />
          </mxGeometry>
        </mxCell>
        <mxCell id="v1292jfQCxuiTqx2GI6a-24" value=":Database Server" style="shape=umlLifeline;perimeter=lifelinePerimeter;whiteSpace=wrap;html=1;container=1;dropTarget=0;collapsible=0;recursiveResize=0;outlineConnect=0;portConstraint=eastwest;newEdgeStyle={&quot;curved&quot;:0,&quot;rounded&quot;:0};" vertex="1" parent="1">
          <mxGeometry x="810" y="82" width="100" height="760" as="geometry" />
        </mxCell>
        <mxCell id="v1292jfQCxuiTqx2GI6a-26" value="" style="html=1;points=[[0,0,0,0,5],[0,1,0,0,-5],[1,0,0,0,5],[1,1,0,0,-5]];perimeter=orthogonalPerimeter;outlineConnect=0;targetShapes=umlLifeline;portConstraint=eastwest;newEdgeStyle={&quot;curved&quot;:0,&quot;rounded&quot;:0};" vertex="1" parent="v1292jfQCxuiTqx2GI6a-24">
          <mxGeometry x="45" y="230" width="10" height="160" as="geometry" />
        </mxCell>
        <mxCell id="v1292jfQCxuiTqx2GI6a-44" value="" style="html=1;points=[[0,0,0,0,5],[0,1,0,0,-5],[1,0,0,0,5],[1,1,0,0,-5]];perimeter=orthogonalPerimeter;outlineConnect=0;targetShapes=umlLifeline;portConstraint=eastwest;newEdgeStyle={&quot;curved&quot;:0,&quot;rounded&quot;:0};" vertex="1" parent="v1292jfQCxuiTqx2GI6a-24">
          <mxGeometry x="45" y="570" width="10" height="100" as="geometry" />
        </mxCell>
        <mxCell id="v1292jfQCxuiTqx2GI6a-25" value="Submit registration form" style="html=1;verticalAlign=bottom;endArrow=block;curved=0;rounded=0;" edge="1" parent="1" target="v1292jfQCxuiTqx2GI6a-28">
          <mxGeometry x="0.4508" width="80" relative="1" as="geometry">
            <mxPoint x="249" y="302" as="sourcePoint" />
            <mxPoint x="529" y="302" as="targetPoint" />
            <mxPoint as="offset" />
          </mxGeometry>
        </mxCell>
        <mxCell id="v1292jfQCxuiTqx2GI6a-27" value="Save member" style="html=1;verticalAlign=bottom;endArrow=block;curved=0;rounded=0;" edge="1" parent="1">
          <mxGeometry width="80" relative="1" as="geometry">
            <mxPoint x="544" y="382" as="sourcePoint" />
            <mxPoint x="854" y="382" as="targetPoint" />
          </mxGeometry>
        </mxCell>
        <mxCell id="v1292jfQCxuiTqx2GI6a-29" value="alt" style="shape=umlFrame;whiteSpace=wrap;html=1;pointerEvents=0;" vertex="1" parent="1">
          <mxGeometry x="259" y="322" width="630" height="140" as="geometry" />
        </mxCell>
        <mxCell id="v1292jfQCxuiTqx2GI6a-30" value="Display registration form" style="html=1;verticalAlign=bottom;endArrow=open;dashed=1;endSize=8;curved=0;rounded=0;" edge="1" parent="1" target="v1292jfQCxuiTqx2GI6a-13">
          <mxGeometry x="-0.4789" relative="1" as="geometry">
            <mxPoint x="533" y="262" as="sourcePoint" />
            <mxPoint x="453" y="262" as="targetPoint" />
            <mxPoint as="offset" />
          </mxGeometry>
        </mxCell>
        <mxCell id="v1292jfQCxuiTqx2GI6a-32" value="[If form submission is invalid]" style="text;html=1;align=center;verticalAlign=middle;whiteSpace=wrap;rounded=0;" vertex="1" parent="1">
          <mxGeometry x="311" y="319" width="190" height="30" as="geometry" />
        </mxCell>
        <mxCell id="v1292jfQCxuiTqx2GI6a-33" value="[If form submission is valid]" style="text;html=1;align=center;verticalAlign=middle;whiteSpace=wrap;rounded=0;" vertex="1" parent="1">
          <mxGeometry x="306" y="364" width="190" height="30" as="geometry" />
        </mxCell>
        <mxCell id="v1292jfQCxuiTqx2GI6a-37" value="" style="html=1;points=[[0,0,0,0,5],[0,1,0,0,-5],[1,0,0,0,5],[1,1,0,0,-5]];perimeter=orthogonalPerimeter;outlineConnect=0;targetShapes=umlLifeline;portConstraint=eastwest;newEdgeStyle={&quot;curved&quot;:0,&quot;rounded&quot;:0};" vertex="1" parent="1">
          <mxGeometry x="374" y="402" width="10" height="150" as="geometry" />
        </mxCell>
        <mxCell id="v1292jfQCxuiTqx2GI6a-38" value="Redirect" style="html=1;verticalAlign=bottom;endArrow=block;curved=0;rounded=0;" edge="1" parent="1">
          <mxGeometry width="80" relative="1" as="geometry">
            <mxPoint x="854" y="421.5" as="sourcePoint" />
            <mxPoint x="384" y="421.5" as="targetPoint" />
            <mxPoint as="offset" />
          </mxGeometry>
        </mxCell>
        <mxCell id="v1292jfQCxuiTqx2GI6a-39" value="Click sign in button" style="html=1;verticalAlign=bottom;endArrow=block;curved=0;rounded=0;" edge="1" parent="1">
          <mxGeometry x="0.008" width="80" relative="1" as="geometry">
            <mxPoint x="249" y="502" as="sourcePoint" />
            <mxPoint x="374" y="502" as="targetPoint" />
            <mxPoint as="offset" />
          </mxGeometry>
        </mxCell>
        <mxCell id="v1292jfQCxuiTqx2GI6a-41" value="Open signin page" style="html=1;verticalAlign=bottom;endArrow=block;curved=0;rounded=0;" edge="1" parent="1" target="v1292jfQCxuiTqx2GI6a-40">
          <mxGeometry width="80" relative="1" as="geometry">
            <mxPoint x="384" y="542" as="sourcePoint" />
            <mxPoint x="464" y="542" as="targetPoint" />
          </mxGeometry>
        </mxCell>
        <mxCell id="v1292jfQCxuiTqx2GI6a-42" value="Display login page" style="html=1;verticalAlign=bottom;endArrow=open;dashed=1;endSize=8;curved=0;rounded=0;" edge="1" parent="1" target="v1292jfQCxuiTqx2GI6a-13">
          <mxGeometry relative="1" as="geometry">
            <mxPoint x="693" y="582" as="sourcePoint" />
            <mxPoint x="613" y="582" as="targetPoint" />
          </mxGeometry>
        </mxCell>
        <mxCell id="v1292jfQCxuiTqx2GI6a-43" value="Submit memberEmail and memberPassword" style="html=1;verticalAlign=bottom;endArrow=block;curved=0;rounded=0;" edge="1" parent="1" target="v1292jfQCxuiTqx2GI6a-40">
          <mxGeometry width="80" relative="1" as="geometry">
            <mxPoint x="249" y="622" as="sourcePoint" />
            <mxPoint x="329" y="622" as="targetPoint" />
          </mxGeometry>
        </mxCell>
        <mxCell id="v1292jfQCxuiTqx2GI6a-45" value="alt" style="shape=umlFrame;whiteSpace=wrap;html=1;pointerEvents=0;" vertex="1" parent="1">
          <mxGeometry x="409" y="670" width="631" height="102" as="geometry" />
        </mxCell>
        <mxCell id="v1292jfQCxuiTqx2GI6a-46" value="Redirect" style="html=1;align=left;spacingLeft=2;endArrow=block;rounded=0;edgeStyle=orthogonalEdgeStyle;curved=0;rounded=0;" edge="1" parent="1">
          <mxGeometry relative="1" as="geometry">
            <mxPoint x="705" y="676" as="sourcePoint" />
            <Array as="points">
              <mxPoint x="735" y="706" />
            </Array>
            <mxPoint x="705" y="706" as="targetPoint" />
          </mxGeometry>
        </mxCell>
        <mxCell id="v1292jfQCxuiTqx2GI6a-47" value="[If authentication is failed]" style="text;html=1;align=center;verticalAlign=middle;whiteSpace=wrap;rounded=0;" vertex="1" parent="1">
          <mxGeometry x="454" y="670" width="190" height="30" as="geometry" />
        </mxCell>
        <mxCell id="v1292jfQCxuiTqx2GI6a-48" value="[If authentication is successful]" style="text;html=1;align=center;verticalAlign=middle;whiteSpace=wrap;rounded=0;" vertex="1" parent="1">
          <mxGeometry x="468" y="720" width="190" height="30" as="geometry" />
        </mxCell>
        <mxCell id="v1292jfQCxuiTqx2GI6a-49" value="Request authentication" style="html=1;verticalAlign=bottom;endArrow=block;curved=0;rounded=0;" edge="1" parent="1">
          <mxGeometry x="0.0033" width="80" relative="1" as="geometry">
            <mxPoint x="705" y="662" as="sourcePoint" />
            <mxPoint x="855" y="662" as="targetPoint" />
            <mxPoint as="offset" />
          </mxGeometry>
        </mxCell>
        <mxCell id="v1292jfQCxuiTqx2GI6a-53" value="Open menu lists page" style="html=1;verticalAlign=bottom;endArrow=block;curved=0;rounded=0;" edge="1" parent="1">
          <mxGeometry x="0.0033" width="80" relative="1" as="geometry">
            <mxPoint x="864" y="742" as="sourcePoint" />
            <mxPoint x="1013.5" y="742" as="targetPoint" />
            <mxPoint as="offset" />
          </mxGeometry>
        </mxCell>
        <mxCell id="v1292jfQCxuiTqx2GI6a-54" value="" style="shape=umlDestroy;whiteSpace=wrap;html=1;strokeWidth=3;targetShapes=umlLifeline;" vertex="1" parent="1">
          <mxGeometry x="369" y="555" width="20" height="20" as="geometry" />
        </mxCell>
        <mxCell id="v1292jfQCxuiTqx2GI6a-55" value="" style="shape=umlDestroy;whiteSpace=wrap;html=1;strokeWidth=3;targetShapes=umlLifeline;" vertex="1" parent="1">
          <mxGeometry x="529" y="472" width="20" height="20" as="geometry" />
        </mxCell>
        <mxCell id="v1292jfQCxuiTqx2GI6a-56" value="" style="shape=umlDestroy;whiteSpace=wrap;html=1;strokeWidth=3;targetShapes=umlLifeline;" vertex="1" parent="1">
          <mxGeometry x="689" y="732" width="20" height="20" as="geometry" />
        </mxCell>
        <mxCell id="v1292jfQCxuiTqx2GI6a-57" value="&lt;h1&gt;Member&lt;/h1&gt;&lt;p&gt;The sequence diagram illustrates the process of a member signing up or signing in to access the inventory management system.&lt;br&gt;&lt;br&gt;&lt;br&gt;&lt;/p&gt;" style="text;html=1;spacing=5;spacingTop=-20;whiteSpace=wrap;overflow=hidden;rounded=0;" vertex="1" parent="1">
          <mxGeometry x="20" y="31" width="180" height="160" as="geometry" />
        </mxCell>
        <mxCell id="v1292jfQCxuiTqx2GI6a-58" value="&amp;lt;&amp;lt;Actor&amp;gt;&amp;gt;&lt;br style=&quot;border-color: var(--border-color);&quot;&gt;Inventory management system" style="html=1;whiteSpace=wrap;" vertex="1" parent="1">
          <mxGeometry x="960" y="50" width="110" height="72" as="geometry" />
        </mxCell>
        <mxCell id="v1292jfQCxuiTqx2GI6a-59" value="" style="endArrow=none;dashed=1;html=1;rounded=0;" edge="1" parent="1" source="v1292jfQCxuiTqx2GI6a-60">
          <mxGeometry width="50" height="50" relative="1" as="geometry">
            <mxPoint x="1016.44" y="839" as="sourcePoint" />
            <mxPoint x="1016.44" y="121" as="targetPoint" />
          </mxGeometry>
        </mxCell>
        <mxCell id="v1292jfQCxuiTqx2GI6a-61" value="" style="endArrow=none;dashed=1;html=1;rounded=0;" edge="1" parent="1" target="v1292jfQCxuiTqx2GI6a-60">
          <mxGeometry width="50" height="50" relative="1" as="geometry">
            <mxPoint x="1016.44" y="839" as="sourcePoint" />
            <mxPoint x="1016.44" y="121" as="targetPoint" />
          </mxGeometry>
        </mxCell>
        <mxCell id="v1292jfQCxuiTqx2GI6a-60" value="" style="html=1;points=[[0,0,0,0,5],[0,1,0,0,-5],[1,0,0,0,5],[1,1,0,0,-5]];perimeter=orthogonalPerimeter;outlineConnect=0;targetShapes=umlLifeline;portConstraint=eastwest;newEdgeStyle={&quot;curved&quot;:0,&quot;rounded&quot;:0};" vertex="1" parent="1">
          <mxGeometry x="1012" y="742" width="10" height="80" as="geometry" />
        </mxCell>
      </root>
    </mxGraphModel>
  </diagram>
</mxfile>
